<mxfile host="app.diagrams.net" modified="2021-03-14T21:05:04.918Z" agent="5.0 (Macintosh; Intel Mac OS X 11_2_1) AppleWebKit/537.36 (KHTML, like Gecko) Chrome/88.0.4324.192 Safari/537.36" etag="OXIW34bnx_yWZ9-9HMkp" version="14.4.4" type="github">
  <diagram name="Page-1" id="e7e014a7-5840-1c2e-5031-d8a46d1fe8dd">
    <mxGraphModel dx="1436" dy="846" grid="1" gridSize="10" guides="1" tooltips="1" connect="1" arrows="1" fold="1" page="1" pageScale="1" pageWidth="1169" pageHeight="826" background="#ffffff" math="0" shadow="0">
      <root>
        <mxCell id="0" />
        <mxCell id="1" parent="0" />
        <mxCell id="Q7geIG9e_dBEJD7fc5_G-61" value="" style="edgeStyle=orthogonalEdgeStyle;rounded=0;orthogonalLoop=1;jettySize=auto;html=1;entryX=0.459;entryY=0.995;entryDx=0;entryDy=0;entryPerimeter=0;dashed=1;" edge="1" parent="1" source="Q7geIG9e_dBEJD7fc5_G-41" target="Q7geIG9e_dBEJD7fc5_G-64">
          <mxGeometry relative="1" as="geometry">
            <mxPoint x="550" y="140" as="targetPoint" />
          </mxGeometry>
        </mxCell>
        <mxCell id="Q7geIG9e_dBEJD7fc5_G-41" value="control" style="swimlane;fontStyle=1;align=center;verticalAlign=top;childLayout=stackLayout;horizontal=1;startSize=26;horizontalStack=0;resizeParent=1;resizeParentMax=0;resizeLast=0;collapsible=1;marginBottom=0;" vertex="1" parent="1">
          <mxGeometry x="470" y="220" width="160" height="60" as="geometry" />
        </mxCell>
        <mxCell id="Q7geIG9e_dBEJD7fc5_G-43" value="" style="line;strokeWidth=1;fillColor=none;align=left;verticalAlign=middle;spacingTop=-1;spacingLeft=3;spacingRight=3;rotatable=0;labelPosition=right;points=[];portConstraint=eastwest;" vertex="1" parent="Q7geIG9e_dBEJD7fc5_G-41">
          <mxGeometry y="26" width="160" height="8" as="geometry" />
        </mxCell>
        <mxCell id="Q7geIG9e_dBEJD7fc5_G-44" value="+ method(type): type" style="text;strokeColor=none;fillColor=none;align=left;verticalAlign=top;spacingLeft=4;spacingRight=4;overflow=hidden;rotatable=0;points=[[0,0.5],[1,0.5]];portConstraint=eastwest;" vertex="1" parent="Q7geIG9e_dBEJD7fc5_G-41">
          <mxGeometry y="34" width="160" height="26" as="geometry" />
        </mxCell>
        <mxCell id="Q7geIG9e_dBEJD7fc5_G-45" value="view" style="swimlane;fontStyle=1;align=center;verticalAlign=top;childLayout=stackLayout;horizontal=1;startSize=26;horizontalStack=0;resizeParent=1;resizeParentMax=0;resizeLast=0;collapsible=1;marginBottom=0;" vertex="1" parent="1">
          <mxGeometry x="140" y="230" width="160" height="60" as="geometry" />
        </mxCell>
        <mxCell id="Q7geIG9e_dBEJD7fc5_G-46" value="" style="line;strokeWidth=1;fillColor=none;align=left;verticalAlign=middle;spacingTop=-1;spacingLeft=3;spacingRight=3;rotatable=0;labelPosition=right;points=[];portConstraint=eastwest;" vertex="1" parent="Q7geIG9e_dBEJD7fc5_G-45">
          <mxGeometry y="26" width="160" height="8" as="geometry" />
        </mxCell>
        <mxCell id="Q7geIG9e_dBEJD7fc5_G-47" value="+ method(type): type" style="text;strokeColor=none;fillColor=none;align=left;verticalAlign=top;spacingLeft=4;spacingRight=4;overflow=hidden;rotatable=0;points=[[0,0.5],[1,0.5]];portConstraint=eastwest;" vertex="1" parent="Q7geIG9e_dBEJD7fc5_G-45">
          <mxGeometry y="34" width="160" height="26" as="geometry" />
        </mxCell>
        <mxCell id="Q7geIG9e_dBEJD7fc5_G-48" value="Use" style="endArrow=open;endSize=12;dashed=1;html=1;exitX=1.018;exitY=0.38;exitDx=0;exitDy=0;exitPerimeter=0;entryX=0;entryY=0.5;entryDx=0;entryDy=0;" edge="1" parent="1" source="Q7geIG9e_dBEJD7fc5_G-45" target="Q7geIG9e_dBEJD7fc5_G-41">
          <mxGeometry width="160" relative="1" as="geometry">
            <mxPoint x="510" y="440" as="sourcePoint" />
            <mxPoint x="670" y="440" as="targetPoint" />
          </mxGeometry>
        </mxCell>
        <mxCell id="Q7geIG9e_dBEJD7fc5_G-49" value="ActionListener" style="html=1;" vertex="1" parent="1">
          <mxGeometry x="60" y="363" width="110" height="50" as="geometry" />
        </mxCell>
        <mxCell id="Q7geIG9e_dBEJD7fc5_G-50" value="" style="endArrow=block;endFill=1;html=1;edgeStyle=orthogonalEdgeStyle;align=left;verticalAlign=top;exitX=0.29;exitY=1.154;exitDx=0;exitDy=0;exitPerimeter=0;entryX=0.5;entryY=0;entryDx=0;entryDy=0;" edge="1" parent="1" source="Q7geIG9e_dBEJD7fc5_G-47" target="Q7geIG9e_dBEJD7fc5_G-49">
          <mxGeometry x="-1" relative="1" as="geometry">
            <mxPoint x="470" y="440" as="sourcePoint" />
            <mxPoint x="630" y="440" as="targetPoint" />
            <Array as="points">
              <mxPoint x="186" y="320" />
              <mxPoint x="115" y="320" />
            </Array>
          </mxGeometry>
        </mxCell>
        <mxCell id="Q7geIG9e_dBEJD7fc5_G-59" value="uses observer" style="edgeLabel;html=1;align=center;verticalAlign=middle;resizable=0;points=[];" vertex="1" connectable="0" parent="Q7geIG9e_dBEJD7fc5_G-50">
          <mxGeometry x="-0.1262" y="-1" relative="1" as="geometry">
            <mxPoint as="offset" />
          </mxGeometry>
        </mxCell>
        <mxCell id="Q7geIG9e_dBEJD7fc5_G-52" value="CalculatorViewListener" style="swimlane;fontStyle=1;align=center;verticalAlign=top;childLayout=stackLayout;horizontal=1;startSize=26;horizontalStack=0;resizeParent=1;resizeParentMax=0;resizeLast=0;collapsible=1;marginBottom=0;" vertex="1" parent="1">
          <mxGeometry x="270" y="358" width="200" height="60" as="geometry" />
        </mxCell>
        <mxCell id="Q7geIG9e_dBEJD7fc5_G-53" value="" style="line;strokeWidth=1;fillColor=none;align=left;verticalAlign=middle;spacingTop=-1;spacingLeft=3;spacingRight=3;rotatable=0;labelPosition=right;points=[];portConstraint=eastwest;" vertex="1" parent="Q7geIG9e_dBEJD7fc5_G-52">
          <mxGeometry y="26" width="200" height="8" as="geometry" />
        </mxCell>
        <mxCell id="Q7geIG9e_dBEJD7fc5_G-54" value="+ actionEvent (ActionEvent e)" style="text;strokeColor=none;fillColor=none;align=left;verticalAlign=top;spacingLeft=4;spacingRight=4;overflow=hidden;rotatable=0;points=[[0,0.5],[1,0.5]];portConstraint=eastwest;" vertex="1" parent="Q7geIG9e_dBEJD7fc5_G-52">
          <mxGeometry y="34" width="200" height="26" as="geometry" />
        </mxCell>
        <mxCell id="Q7geIG9e_dBEJD7fc5_G-56" value="" style="endArrow=block;endFill=1;html=1;edgeStyle=orthogonalEdgeStyle;align=left;verticalAlign=top;exitX=1;exitY=0.5;exitDx=0;exitDy=0;entryX=0;entryY=0.5;entryDx=0;entryDy=0;" edge="1" parent="1" source="Q7geIG9e_dBEJD7fc5_G-49" target="Q7geIG9e_dBEJD7fc5_G-52">
          <mxGeometry x="-1" relative="1" as="geometry">
            <mxPoint x="470" y="440" as="sourcePoint" />
            <mxPoint x="240" y="388" as="targetPoint" />
          </mxGeometry>
        </mxCell>
        <mxCell id="Q7geIG9e_dBEJD7fc5_G-58" value="extend" style="edgeLabel;html=1;align=center;verticalAlign=middle;resizable=0;points=[];" vertex="1" connectable="0" parent="Q7geIG9e_dBEJD7fc5_G-56">
          <mxGeometry x="-0.2024" relative="1" as="geometry">
            <mxPoint as="offset" />
          </mxGeometry>
        </mxCell>
        <mxCell id="Q7geIG9e_dBEJD7fc5_G-62" value="StateSystem" style="swimlane;fontStyle=1;align=center;verticalAlign=top;childLayout=stackLayout;horizontal=1;startSize=26;horizontalStack=0;resizeParent=1;resizeParentMax=0;resizeLast=0;collapsible=1;marginBottom=0;" vertex="1" parent="1">
          <mxGeometry x="476" y="112" width="160" height="60" as="geometry" />
        </mxCell>
        <mxCell id="Q7geIG9e_dBEJD7fc5_G-63" value="" style="line;strokeWidth=1;fillColor=none;align=left;verticalAlign=middle;spacingTop=-1;spacingLeft=3;spacingRight=3;rotatable=0;labelPosition=right;points=[];portConstraint=eastwest;" vertex="1" parent="Q7geIG9e_dBEJD7fc5_G-62">
          <mxGeometry y="26" width="160" height="8" as="geometry" />
        </mxCell>
        <mxCell id="Q7geIG9e_dBEJD7fc5_G-64" value="+ handleMessage(string)" style="text;strokeColor=none;fillColor=none;align=left;verticalAlign=top;spacingLeft=4;spacingRight=4;overflow=hidden;rotatable=0;points=[[0,0.5],[1,0.5]];portConstraint=eastwest;" vertex="1" parent="Q7geIG9e_dBEJD7fc5_G-62">
          <mxGeometry y="34" width="160" height="26" as="geometry" />
        </mxCell>
        <mxCell id="Q7geIG9e_dBEJD7fc5_G-65" value="StartState" style="swimlane;fontStyle=1;align=center;verticalAlign=top;childLayout=stackLayout;horizontal=1;startSize=26;horizontalStack=0;resizeParent=1;resizeParentMax=0;resizeLast=0;collapsible=1;marginBottom=0;" vertex="1" parent="1">
          <mxGeometry x="70" y="40" width="160" height="34" as="geometry" />
        </mxCell>
        <mxCell id="Q7geIG9e_dBEJD7fc5_G-66" value="" style="line;strokeWidth=1;fillColor=none;align=left;verticalAlign=middle;spacingTop=-1;spacingLeft=3;spacingRight=3;rotatable=0;labelPosition=right;points=[];portConstraint=eastwest;" vertex="1" parent="Q7geIG9e_dBEJD7fc5_G-65">
          <mxGeometry y="26" width="160" height="8" as="geometry" />
        </mxCell>
        <mxCell id="Q7geIG9e_dBEJD7fc5_G-68" value="GetFirstOperandState" style="swimlane;fontStyle=1;align=center;verticalAlign=top;childLayout=stackLayout;horizontal=1;startSize=26;horizontalStack=0;resizeParent=1;resizeParentMax=0;resizeLast=0;collapsible=1;marginBottom=0;" vertex="1" parent="1">
          <mxGeometry x="260" y="40" width="160" height="34" as="geometry" />
        </mxCell>
        <mxCell id="Q7geIG9e_dBEJD7fc5_G-69" value="" style="line;strokeWidth=1;fillColor=none;align=left;verticalAlign=middle;spacingTop=-1;spacingLeft=3;spacingRight=3;rotatable=0;labelPosition=right;points=[];portConstraint=eastwest;" vertex="1" parent="Q7geIG9e_dBEJD7fc5_G-68">
          <mxGeometry y="26" width="160" height="8" as="geometry" />
        </mxCell>
        <mxCell id="Q7geIG9e_dBEJD7fc5_G-70" value="ErrorState" style="swimlane;fontStyle=1;align=center;verticalAlign=top;childLayout=stackLayout;horizontal=1;startSize=26;horizontalStack=0;resizeParent=1;resizeParentMax=0;resizeLast=0;collapsible=1;marginBottom=0;" vertex="1" parent="1">
          <mxGeometry x="460" y="40" width="160" height="34" as="geometry" />
        </mxCell>
        <mxCell id="Q7geIG9e_dBEJD7fc5_G-71" value="" style="line;strokeWidth=1;fillColor=none;align=left;verticalAlign=middle;spacingTop=-1;spacingLeft=3;spacingRight=3;rotatable=0;labelPosition=right;points=[];portConstraint=eastwest;" vertex="1" parent="Q7geIG9e_dBEJD7fc5_G-70">
          <mxGeometry y="26" width="160" height="8" as="geometry" />
        </mxCell>
        <mxCell id="Q7geIG9e_dBEJD7fc5_G-72" value="WaitingForNextOperandState" style="swimlane;fontStyle=1;align=center;verticalAlign=top;childLayout=stackLayout;horizontal=1;startSize=26;horizontalStack=0;resizeParent=1;resizeParentMax=0;resizeLast=0;collapsible=1;marginBottom=0;" vertex="1" parent="1">
          <mxGeometry x="636" y="40" width="160" height="34" as="geometry" />
        </mxCell>
        <mxCell id="Q7geIG9e_dBEJD7fc5_G-73" value="" style="line;strokeWidth=1;fillColor=none;align=left;verticalAlign=middle;spacingTop=-1;spacingLeft=3;spacingRight=3;rotatable=0;labelPosition=right;points=[];portConstraint=eastwest;" vertex="1" parent="Q7geIG9e_dBEJD7fc5_G-72">
          <mxGeometry y="26" width="160" height="8" as="geometry" />
        </mxCell>
        <mxCell id="Q7geIG9e_dBEJD7fc5_G-74" value="GetSecondOperandState" style="swimlane;fontStyle=1;align=center;verticalAlign=top;childLayout=stackLayout;horizontal=1;startSize=26;horizontalStack=0;resizeParent=1;resizeParentMax=0;resizeLast=0;collapsible=1;marginBottom=0;" vertex="1" parent="1">
          <mxGeometry x="820" y="40" width="160" height="34" as="geometry" />
        </mxCell>
        <mxCell id="Q7geIG9e_dBEJD7fc5_G-75" value="" style="line;strokeWidth=1;fillColor=none;align=left;verticalAlign=middle;spacingTop=-1;spacingLeft=3;spacingRight=3;rotatable=0;labelPosition=right;points=[];portConstraint=eastwest;" vertex="1" parent="Q7geIG9e_dBEJD7fc5_G-74">
          <mxGeometry y="26" width="160" height="8" as="geometry" />
        </mxCell>
        <mxCell id="Q7geIG9e_dBEJD7fc5_G-76" value="CalculateState" style="swimlane;fontStyle=1;align=center;verticalAlign=top;childLayout=stackLayout;horizontal=1;startSize=26;horizontalStack=0;resizeParent=1;resizeParentMax=0;resizeLast=0;collapsible=1;marginBottom=0;" vertex="1" parent="1">
          <mxGeometry x="990" y="40" width="160" height="34" as="geometry" />
        </mxCell>
        <mxCell id="Q7geIG9e_dBEJD7fc5_G-77" value="" style="line;strokeWidth=1;fillColor=none;align=left;verticalAlign=middle;spacingTop=-1;spacingLeft=3;spacingRight=3;rotatable=0;labelPosition=right;points=[];portConstraint=eastwest;" vertex="1" parent="Q7geIG9e_dBEJD7fc5_G-76">
          <mxGeometry y="26" width="160" height="8" as="geometry" />
        </mxCell>
        <mxCell id="Q7geIG9e_dBEJD7fc5_G-78" value="Use" style="endArrow=open;endSize=12;dashed=1;html=1;exitX=0;exitY=0.25;exitDx=0;exitDy=0;entryX=0.5;entryY=1;entryDx=0;entryDy=0;edgeStyle=orthogonalEdgeStyle;" edge="1" parent="1" source="Q7geIG9e_dBEJD7fc5_G-62" target="Q7geIG9e_dBEJD7fc5_G-65">
          <mxGeometry width="160" relative="1" as="geometry">
            <mxPoint x="312.8800000000001" y="262.79999999999995" as="sourcePoint" />
            <mxPoint x="480" y="260" as="targetPoint" />
          </mxGeometry>
        </mxCell>
        <mxCell id="Q7geIG9e_dBEJD7fc5_G-79" value="Use" style="endArrow=open;endSize=12;dashed=1;html=1;entryX=0.5;entryY=1;entryDx=0;entryDy=0;edgeStyle=orthogonalEdgeStyle;exitX=0;exitY=0.25;exitDx=0;exitDy=0;" edge="1" parent="1" source="Q7geIG9e_dBEJD7fc5_G-62" target="Q7geIG9e_dBEJD7fc5_G-68">
          <mxGeometry width="160" relative="1" as="geometry">
            <mxPoint x="480" y="122" as="sourcePoint" />
            <mxPoint x="160" y="84" as="targetPoint" />
          </mxGeometry>
        </mxCell>
        <mxCell id="Q7geIG9e_dBEJD7fc5_G-80" value="Use" style="endArrow=open;endSize=12;dashed=1;html=1;entryX=0.25;entryY=1;entryDx=0;entryDy=0;edgeStyle=orthogonalEdgeStyle;exitX=0.182;exitY=0.014;exitDx=0;exitDy=0;exitPerimeter=0;" edge="1" parent="1" source="Q7geIG9e_dBEJD7fc5_G-62" target="Q7geIG9e_dBEJD7fc5_G-70">
          <mxGeometry width="160" relative="1" as="geometry">
            <mxPoint x="486" y="137" as="sourcePoint" />
            <mxPoint x="350" y="84" as="targetPoint" />
          </mxGeometry>
        </mxCell>
        <mxCell id="Q7geIG9e_dBEJD7fc5_G-81" value="Use" style="endArrow=open;endSize=12;dashed=1;html=1;entryX=0.5;entryY=1;entryDx=0;entryDy=0;edgeStyle=orthogonalEdgeStyle;exitX=1;exitY=0.25;exitDx=0;exitDy=0;" edge="1" parent="1" source="Q7geIG9e_dBEJD7fc5_G-62" target="Q7geIG9e_dBEJD7fc5_G-72">
          <mxGeometry width="160" relative="1" as="geometry">
            <mxPoint x="496" y="147" as="sourcePoint" />
            <mxPoint x="360" y="94" as="targetPoint" />
          </mxGeometry>
        </mxCell>
        <mxCell id="Q7geIG9e_dBEJD7fc5_G-82" value="Use" style="endArrow=open;endSize=12;dashed=1;html=1;entryX=0.25;entryY=1;entryDx=0;entryDy=0;edgeStyle=orthogonalEdgeStyle;exitX=1;exitY=0.25;exitDx=0;exitDy=0;" edge="1" parent="1" source="Q7geIG9e_dBEJD7fc5_G-62" target="Q7geIG9e_dBEJD7fc5_G-74">
          <mxGeometry width="160" relative="1" as="geometry">
            <mxPoint x="506" y="157" as="sourcePoint" />
            <mxPoint x="370" y="104" as="targetPoint" />
          </mxGeometry>
        </mxCell>
        <mxCell id="Q7geIG9e_dBEJD7fc5_G-83" value="Use" style="endArrow=open;endSize=12;dashed=1;html=1;entryX=0.5;entryY=1;entryDx=0;entryDy=0;edgeStyle=orthogonalEdgeStyle;exitX=1;exitY=0.25;exitDx=0;exitDy=0;" edge="1" parent="1" source="Q7geIG9e_dBEJD7fc5_G-62" target="Q7geIG9e_dBEJD7fc5_G-76">
          <mxGeometry width="160" relative="1" as="geometry">
            <mxPoint x="640" y="160" as="sourcePoint" />
            <mxPoint x="380" y="114" as="targetPoint" />
          </mxGeometry>
        </mxCell>
        <mxCell id="Q7geIG9e_dBEJD7fc5_G-84" value="TreeController" style="swimlane;fontStyle=1;align=center;verticalAlign=top;childLayout=stackLayout;horizontal=1;startSize=26;horizontalStack=0;resizeParent=1;resizeParentMax=0;resizeLast=0;collapsible=1;marginBottom=0;" vertex="1" parent="1">
          <mxGeometry x="796" y="210" width="160" height="110" as="geometry" />
        </mxCell>
        <mxCell id="Q7geIG9e_dBEJD7fc5_G-85" value="" style="line;strokeWidth=1;fillColor=none;align=left;verticalAlign=middle;spacingTop=-1;spacingLeft=3;spacingRight=3;rotatable=0;labelPosition=right;points=[];portConstraint=eastwest;" vertex="1" parent="Q7geIG9e_dBEJD7fc5_G-84">
          <mxGeometry y="26" width="160" height="8" as="geometry" />
        </mxCell>
        <mxCell id="Q7geIG9e_dBEJD7fc5_G-86" value="+update (OpInfo)&#xa;- constructTree()&#xa;- clear()&#xa;- notifyUpdate()" style="text;strokeColor=none;fillColor=none;align=left;verticalAlign=top;spacingLeft=4;spacingRight=4;overflow=hidden;rotatable=0;points=[[0,0.5],[1,0.5]];portConstraint=eastwest;" vertex="1" parent="Q7geIG9e_dBEJD7fc5_G-84">
          <mxGeometry y="34" width="160" height="76" as="geometry" />
        </mxCell>
        <mxCell id="Q7geIG9e_dBEJD7fc5_G-88" value="&lt;span style=&quot;text-align: left&quot;&gt;IOpObserver&lt;/span&gt;" style="html=1;" vertex="1" parent="1">
          <mxGeometry x="630" y="338" width="110" height="50" as="geometry" />
        </mxCell>
        <mxCell id="Q7geIG9e_dBEJD7fc5_G-92" value="" style="endArrow=block;endFill=1;html=1;edgeStyle=orthogonalEdgeStyle;align=left;verticalAlign=top;exitX=1;exitY=0.5;exitDx=0;exitDy=0;entryX=0;entryY=0.5;entryDx=0;entryDy=0;" edge="1" parent="1" source="Q7geIG9e_dBEJD7fc5_G-88" target="Q7geIG9e_dBEJD7fc5_G-84">
          <mxGeometry x="-1" relative="1" as="geometry">
            <mxPoint x="1020" y="385" as="sourcePoint" />
            <mxPoint x="790" y="333" as="targetPoint" />
          </mxGeometry>
        </mxCell>
        <mxCell id="Q7geIG9e_dBEJD7fc5_G-93" value="extend" style="edgeLabel;html=1;align=center;verticalAlign=middle;resizable=0;points=[];" vertex="1" connectable="0" parent="Q7geIG9e_dBEJD7fc5_G-92">
          <mxGeometry x="-0.2024" relative="1" as="geometry">
            <mxPoint as="offset" />
          </mxGeometry>
        </mxCell>
        <mxCell id="Q7geIG9e_dBEJD7fc5_G-94" value="" style="endArrow=block;endFill=1;html=1;edgeStyle=orthogonalEdgeStyle;align=left;verticalAlign=top;exitX=1;exitY=0.5;exitDx=0;exitDy=0;entryX=0.5;entryY=0;entryDx=0;entryDy=0;" edge="1" parent="1" source="Q7geIG9e_dBEJD7fc5_G-44" target="Q7geIG9e_dBEJD7fc5_G-88">
          <mxGeometry x="-1" relative="1" as="geometry">
            <mxPoint x="196.4000000000001" y="304.0039999999999" as="sourcePoint" />
            <mxPoint x="125" y="372.9999999999998" as="targetPoint" />
            <Array as="points">
              <mxPoint x="665" y="267" />
            </Array>
          </mxGeometry>
        </mxCell>
        <mxCell id="Q7geIG9e_dBEJD7fc5_G-95" value="uses observer" style="edgeLabel;html=1;align=center;verticalAlign=middle;resizable=0;points=[];" vertex="1" connectable="0" parent="Q7geIG9e_dBEJD7fc5_G-94">
          <mxGeometry x="-0.1262" y="-1" relative="1" as="geometry">
            <mxPoint as="offset" />
          </mxGeometry>
        </mxCell>
        <mxCell id="Q7geIG9e_dBEJD7fc5_G-96" value="TreeComponent" style="swimlane;fontStyle=1;align=center;verticalAlign=top;childLayout=stackLayout;horizontal=1;startSize=26;horizontalStack=0;resizeParent=1;resizeParentMax=0;resizeLast=0;collapsible=1;marginBottom=0;" vertex="1" parent="1">
          <mxGeometry x="770" y="420" width="160" height="90" as="geometry" />
        </mxCell>
        <mxCell id="Q7geIG9e_dBEJD7fc5_G-97" value="" style="line;strokeWidth=1;fillColor=none;align=left;verticalAlign=middle;spacingTop=-1;spacingLeft=3;spacingRight=3;rotatable=0;labelPosition=right;points=[];portConstraint=eastwest;" vertex="1" parent="Q7geIG9e_dBEJD7fc5_G-96">
          <mxGeometry y="26" width="160" height="8" as="geometry" />
        </mxCell>
        <mxCell id="Q7geIG9e_dBEJD7fc5_G-98" value="+ getabel(): string&#xa;+ accept(LogVisitor) : string&#xa;+ accept(CalculateVisitor):  int&#xa;" style="text;strokeColor=none;fillColor=none;align=left;verticalAlign=top;spacingLeft=4;spacingRight=4;overflow=hidden;rotatable=0;points=[[0,0.5],[1,0.5]];portConstraint=eastwest;" vertex="1" parent="Q7geIG9e_dBEJD7fc5_G-96">
          <mxGeometry y="34" width="160" height="56" as="geometry" />
        </mxCell>
        <mxCell id="Q7geIG9e_dBEJD7fc5_G-99" value="Leaf" style="swimlane;fontStyle=1;align=center;verticalAlign=top;childLayout=stackLayout;horizontal=1;startSize=26;horizontalStack=0;resizeParent=1;resizeParentMax=0;resizeLast=0;collapsible=1;marginBottom=0;" vertex="1" parent="1">
          <mxGeometry x="610" y="550" width="160" height="60" as="geometry" />
        </mxCell>
        <mxCell id="Q7geIG9e_dBEJD7fc5_G-100" value="" style="line;strokeWidth=1;fillColor=none;align=left;verticalAlign=middle;spacingTop=-1;spacingLeft=3;spacingRight=3;rotatable=0;labelPosition=right;points=[];portConstraint=eastwest;" vertex="1" parent="Q7geIG9e_dBEJD7fc5_G-99">
          <mxGeometry y="26" width="160" height="8" as="geometry" />
        </mxCell>
        <mxCell id="Q7geIG9e_dBEJD7fc5_G-101" value="+" style="text;strokeColor=none;fillColor=none;align=left;verticalAlign=top;spacingLeft=4;spacingRight=4;overflow=hidden;rotatable=0;points=[[0,0.5],[1,0.5]];portConstraint=eastwest;" vertex="1" parent="Q7geIG9e_dBEJD7fc5_G-99">
          <mxGeometry y="34" width="160" height="26" as="geometry" />
        </mxCell>
        <mxCell id="Q7geIG9e_dBEJD7fc5_G-102" value="Node" style="swimlane;fontStyle=1;align=center;verticalAlign=top;childLayout=stackLayout;horizontal=1;startSize=26;horizontalStack=0;resizeParent=1;resizeParentMax=0;resizeLast=0;collapsible=1;marginBottom=0;" vertex="1" parent="1">
          <mxGeometry x="800" y="570" width="160" height="60" as="geometry" />
        </mxCell>
        <mxCell id="Q7geIG9e_dBEJD7fc5_G-103" value="" style="line;strokeWidth=1;fillColor=none;align=left;verticalAlign=middle;spacingTop=-1;spacingLeft=3;spacingRight=3;rotatable=0;labelPosition=right;points=[];portConstraint=eastwest;" vertex="1" parent="Q7geIG9e_dBEJD7fc5_G-102">
          <mxGeometry y="26" width="160" height="8" as="geometry" />
        </mxCell>
        <mxCell id="Q7geIG9e_dBEJD7fc5_G-104" value="+" style="text;strokeColor=none;fillColor=none;align=left;verticalAlign=top;spacingLeft=4;spacingRight=4;overflow=hidden;rotatable=0;points=[[0,0.5],[1,0.5]];portConstraint=eastwest;" vertex="1" parent="Q7geIG9e_dBEJD7fc5_G-102">
          <mxGeometry y="34" width="160" height="26" as="geometry" />
        </mxCell>
        <mxCell id="Q7geIG9e_dBEJD7fc5_G-108" value="" style="endArrow=block;endSize=16;endFill=0;html=1;dashed=1;exitX=0;exitY=0.5;exitDx=0;exitDy=0;entryX=0.5;entryY=0;entryDx=0;entryDy=0;edgeStyle=orthogonalEdgeStyle;" edge="1" parent="1" source="Q7geIG9e_dBEJD7fc5_G-98" target="Q7geIG9e_dBEJD7fc5_G-99">
          <mxGeometry width="160" relative="1" as="geometry">
            <mxPoint x="480" y="480" as="sourcePoint" />
            <mxPoint x="640" y="480" as="targetPoint" />
          </mxGeometry>
        </mxCell>
        <mxCell id="Q7geIG9e_dBEJD7fc5_G-110" value="" style="endArrow=block;endSize=16;endFill=0;html=1;dashed=1;exitX=0.455;exitY=1.05;exitDx=0;exitDy=0;entryX=0.25;entryY=0;entryDx=0;entryDy=0;edgeStyle=orthogonalEdgeStyle;exitPerimeter=0;" edge="1" parent="1" source="Q7geIG9e_dBEJD7fc5_G-98" target="Q7geIG9e_dBEJD7fc5_G-102">
          <mxGeometry width="160" relative="1" as="geometry">
            <mxPoint x="780" y="492" as="sourcePoint" />
            <mxPoint x="700" y="560" as="targetPoint" />
            <Array as="points">
              <mxPoint x="840" y="513" />
            </Array>
          </mxGeometry>
        </mxCell>
        <mxCell id="Q7geIG9e_dBEJD7fc5_G-111" value="" style="endArrow=open;html=1;endSize=12;startArrow=diamondThin;startSize=14;startFill=0;edgeStyle=orthogonalEdgeStyle;align=left;verticalAlign=bottom;dashed=1;exitX=0.5;exitY=0;exitDx=0;exitDy=0;entryX=0.69;entryY=1.029;entryDx=0;entryDy=0;entryPerimeter=0;" edge="1" parent="1" source="Q7geIG9e_dBEJD7fc5_G-102" target="Q7geIG9e_dBEJD7fc5_G-98">
          <mxGeometry x="-1" y="3" relative="1" as="geometry">
            <mxPoint x="480" y="480" as="sourcePoint" />
            <mxPoint x="640" y="480" as="targetPoint" />
            <Array as="points">
              <mxPoint x="880" y="530" />
              <mxPoint x="880" y="530" />
            </Array>
          </mxGeometry>
        </mxCell>
        <mxCell id="Q7geIG9e_dBEJD7fc5_G-112" value="Use" style="endArrow=open;endSize=12;dashed=1;html=1;exitX=0.176;exitY=1.037;exitDx=0;exitDy=0;exitPerimeter=0;entryX=0.5;entryY=0;entryDx=0;entryDy=0;edgeStyle=orthogonalEdgeStyle;" edge="1" parent="1" source="Q7geIG9e_dBEJD7fc5_G-86" target="Q7geIG9e_dBEJD7fc5_G-96">
          <mxGeometry width="160" relative="1" as="geometry">
            <mxPoint x="480" y="480" as="sourcePoint" />
            <mxPoint x="640" y="480" as="targetPoint" />
            <Array as="points">
              <mxPoint x="824" y="350" />
              <mxPoint x="850" y="350" />
            </Array>
          </mxGeometry>
        </mxCell>
        <mxCell id="Q7geIG9e_dBEJD7fc5_G-113" value="&lt;inrerface&gt; CalculateVisitor" style="swimlane;fontStyle=1;align=center;verticalAlign=top;childLayout=stackLayout;horizontal=1;startSize=26;horizontalStack=0;resizeParent=1;resizeParentMax=0;resizeLast=0;collapsible=1;marginBottom=0;" vertex="1" parent="1">
          <mxGeometry x="980" y="378" width="180" height="70" as="geometry" />
        </mxCell>
        <mxCell id="Q7geIG9e_dBEJD7fc5_G-114" value="" style="line;strokeWidth=1;fillColor=none;align=left;verticalAlign=middle;spacingTop=-1;spacingLeft=3;spacingRight=3;rotatable=0;labelPosition=right;points=[];portConstraint=eastwest;" vertex="1" parent="Q7geIG9e_dBEJD7fc5_G-113">
          <mxGeometry y="26" width="180" height="8" as="geometry" />
        </mxCell>
        <mxCell id="Q7geIG9e_dBEJD7fc5_G-115" value="+calculate(TreeComponent)" style="text;strokeColor=none;fillColor=none;align=left;verticalAlign=top;spacingLeft=4;spacingRight=4;overflow=hidden;rotatable=0;points=[[0,0.5],[1,0.5]];portConstraint=eastwest;" vertex="1" parent="Q7geIG9e_dBEJD7fc5_G-113">
          <mxGeometry y="34" width="180" height="36" as="geometry" />
        </mxCell>
        <mxCell id="Q7geIG9e_dBEJD7fc5_G-116" value="&lt;interface&gt; LogVisitor" style="swimlane;fontStyle=1;align=center;verticalAlign=top;childLayout=stackLayout;horizontal=1;startSize=26;horizontalStack=0;resizeParent=1;resizeParentMax=0;resizeLast=0;collapsible=1;marginBottom=0;" vertex="1" parent="1">
          <mxGeometry x="1000" y="480" width="160" height="70" as="geometry" />
        </mxCell>
        <mxCell id="Q7geIG9e_dBEJD7fc5_G-117" value="" style="line;strokeWidth=1;fillColor=none;align=left;verticalAlign=middle;spacingTop=-1;spacingLeft=3;spacingRight=3;rotatable=0;labelPosition=right;points=[];portConstraint=eastwest;" vertex="1" parent="Q7geIG9e_dBEJD7fc5_G-116">
          <mxGeometry y="26" width="160" height="8" as="geometry" />
        </mxCell>
        <mxCell id="Q7geIG9e_dBEJD7fc5_G-118" value="+ log(TreeComponent)" style="text;strokeColor=none;fillColor=none;align=left;verticalAlign=top;spacingLeft=4;spacingRight=4;overflow=hidden;rotatable=0;points=[[0,0.5],[1,0.5]];portConstraint=eastwest;" vertex="1" parent="Q7geIG9e_dBEJD7fc5_G-116">
          <mxGeometry y="34" width="160" height="36" as="geometry" />
        </mxCell>
        <mxCell id="Q7geIG9e_dBEJD7fc5_G-119" value="CalculateVisitor1" style="swimlane;fontStyle=1;align=center;verticalAlign=top;childLayout=stackLayout;horizontal=1;startSize=26;horizontalStack=0;resizeParent=1;resizeParentMax=0;resizeLast=0;collapsible=1;marginBottom=0;" vertex="1" parent="1">
          <mxGeometry x="980" y="250" width="180" height="70" as="geometry" />
        </mxCell>
        <mxCell id="Q7geIG9e_dBEJD7fc5_G-120" value="" style="line;strokeWidth=1;fillColor=none;align=left;verticalAlign=middle;spacingTop=-1;spacingLeft=3;spacingRight=3;rotatable=0;labelPosition=right;points=[];portConstraint=eastwest;" vertex="1" parent="Q7geIG9e_dBEJD7fc5_G-119">
          <mxGeometry y="26" width="180" height="8" as="geometry" />
        </mxCell>
        <mxCell id="Q7geIG9e_dBEJD7fc5_G-121" value="+" style="text;strokeColor=none;fillColor=none;align=left;verticalAlign=top;spacingLeft=4;spacingRight=4;overflow=hidden;rotatable=0;points=[[0,0.5],[1,0.5]];portConstraint=eastwest;" vertex="1" parent="Q7geIG9e_dBEJD7fc5_G-119">
          <mxGeometry y="34" width="180" height="36" as="geometry" />
        </mxCell>
        <mxCell id="Q7geIG9e_dBEJD7fc5_G-123" value="" style="endArrow=block;endFill=1;html=1;edgeStyle=orthogonalEdgeStyle;align=left;verticalAlign=top;exitX=0.5;exitY=0;exitDx=0;exitDy=0;entryX=0.447;entryY=0.997;entryDx=0;entryDy=0;entryPerimeter=0;" edge="1" parent="1" source="Q7geIG9e_dBEJD7fc5_G-113" target="Q7geIG9e_dBEJD7fc5_G-121">
          <mxGeometry x="-1" relative="1" as="geometry">
            <mxPoint x="750" y="373.0000000000002" as="sourcePoint" />
            <mxPoint x="806" y="275" as="targetPoint" />
          </mxGeometry>
        </mxCell>
        <mxCell id="Q7geIG9e_dBEJD7fc5_G-126" value="LogVisitor1" style="swimlane;fontStyle=1;align=center;verticalAlign=top;childLayout=stackLayout;horizontal=1;startSize=26;horizontalStack=0;resizeParent=1;resizeParentMax=0;resizeLast=0;collapsible=1;marginBottom=0;" vertex="1" parent="1">
          <mxGeometry x="990" y="620" width="160" height="70" as="geometry" />
        </mxCell>
        <mxCell id="Q7geIG9e_dBEJD7fc5_G-127" value="" style="line;strokeWidth=1;fillColor=none;align=left;verticalAlign=middle;spacingTop=-1;spacingLeft=3;spacingRight=3;rotatable=0;labelPosition=right;points=[];portConstraint=eastwest;" vertex="1" parent="Q7geIG9e_dBEJD7fc5_G-126">
          <mxGeometry y="26" width="160" height="8" as="geometry" />
        </mxCell>
        <mxCell id="Q7geIG9e_dBEJD7fc5_G-128" value="+" style="text;strokeColor=none;fillColor=none;align=left;verticalAlign=top;spacingLeft=4;spacingRight=4;overflow=hidden;rotatable=0;points=[[0,0.5],[1,0.5]];portConstraint=eastwest;" vertex="1" parent="Q7geIG9e_dBEJD7fc5_G-126">
          <mxGeometry y="34" width="160" height="36" as="geometry" />
        </mxCell>
        <mxCell id="Q7geIG9e_dBEJD7fc5_G-129" value="" style="endArrow=block;endFill=1;html=1;edgeStyle=orthogonalEdgeStyle;align=left;verticalAlign=top;entryX=0.5;entryY=0;entryDx=0;entryDy=0;" edge="1" parent="1" target="Q7geIG9e_dBEJD7fc5_G-126">
          <mxGeometry x="-1" relative="1" as="geometry">
            <mxPoint x="1070" y="550" as="sourcePoint" />
            <mxPoint x="1054.46" y="329.89200000000005" as="targetPoint" />
          </mxGeometry>
        </mxCell>
      </root>
    </mxGraphModel>
  </diagram>
</mxfile>
